  0
SECTION
  2
HEADER
  9
$ACADVER
  1
AC1009
  0
ENDSEC
  0
SECTION
  2
ENTITIES
  0
POLYLINE
  8
ROGERS RO4003C (LOSSY)
 66
1
 39
0
 10
0.000000
 20
0.000000
 30
0.000000
 70
1
  0
VERTEX
  8
ROGERS RO4003C (LOSSY)
 39
0
 10
8.600309
 20
-5.693687
 30
0.000000
 70
0
 42
0
  0
VERTEX
  8
ROGERS RO4003C (LOSSY)
 39
0
 10
8.600309
 20
5.693687
 30
0.000000
 70
0
 42
0
  0
VERTEX
  8
ROGERS RO4003C (LOSSY)
 39
0
 10
-8.600309
 20
5.693687
 30
0.000000
 70
0
 42
0
  0
VERTEX
  8
ROGERS RO4003C (LOSSY)
 39
0
 10
-8.600309
 20
-5.693687
 30
0.000000
 70
0
 42
0
  0
SEQEND
  8
ROGERS RO4003C (LOSSY)
  0
POLYLINE
  8
PEC
 66
1
 39
0
 10
0.000000
 20
0.000000
 30
0.000000
 70
0
  0
VERTEX
  8
PEC
 39
0
 10
-8.600309
 20
-5.693687
 30
0.000000
 70
0
 42
0
  0
VERTEX
  8
PEC
 39
0
 10
-8.600309
 20
4.779494
 30
0.000000
 70
0
 42
0
  0
SEQEND
  0
POLYLINE
  8
PEC
 66
1
 39
0
 10
0.000000
 20
0.000000
 30
0.000000
 70
0
  0
VERTEX
  8
PEC
 39
0
 10
8.600309
 20
-5.693687
 30
0.000000
 70
0
 42
0
  0
VERTEX
  8
PEC
 39
0
 10
-8.600309
 20
-5.693687
 30
0.000000
 70
0
 42
0
  0
SEQEND
  0
POLYLINE
  8
PEC
 66
1
 39
0
 10
0.000000
 20
0.000000
 30
0.000000
 70
0
  0
VERTEX
  8
PEC
 39
0
 10
8.600309
 20
5.693687
 30
0.000000
 70
0
 42
0
  0
VERTEX
  8
PEC
 39
0
 10
8.600309
 20
-5.693687
 30
0.000000
 70
0
 42
0
  0
SEQEND
  0
POLYLINE
  8
PEC
 66
1
 39
0
 10
0.000000
 20
0.000000
 30
0.000000
 70
0
  0
VERTEX
  8
PEC
 39
0
 10
5.149868
 20
5.693687
 30
0.000000
 70
0
 42
0
  0
VERTEX
  8
PEC
 39
0
 10
8.600309
 20
5.693687
 30
0.000000
 70
0
 42
0
  0
SEQEND
  0
POLYLINE
  8
PEC
 66
1
 39
0
 10
0.000000
 20
0.000000
 30
0.000000
 70
4
 75
5
  0
VERTEX
  8
PEC
 39
0
 10
1.043913
 20
-4.069073
 30
0.000000
 70
16
 42
0
  0
VERTEX
  8
PEC
 39
0
 10
5.149868
 20
5.693687
 30
0.000000
 70
8
 42
0
  0
VERTEX
  8
PEC
 39
0
 10
5.556648
 20
5.427923
 30
0.000000
 70
8
 42
0
  0
VERTEX
  8
PEC
 39
0
 10
5.617643
 20
5.352753
 30
0.000000
 70
8
 42
0
  0
VERTEX
  8
PEC
 39
0
 10
5.649282
 20
5.281639
 30
0.000000
 70
8
 42
0
  0
VERTEX
  8
PEC
 39
0
 10
5.659161
 20
5.219295
 30
0.000000
 70
8
 42
0
  0
VERTEX
  8
PEC
 39
0
 10
5.651695
 20
5.155239
 30
0.000000
 70
8
 42
0
  0
VERTEX
  8
PEC
 39
0
 10
5.619288
 20
5.073972
 30
0.000000
 70
8
 42
0
  0
VERTEX
  8
PEC
 39
0
 10
5.535160
 20
4.962193
 30
0.000000
 70
8
 42
0
  0
VERTEX
  8
PEC
 39
0
 10
5.224669
 20
4.727181
 30
0.000000
 70
8
 42
0
  0
VERTEX
  8
PEC
 39
0
 10
4.312072
 20
4.300987
 30
0.000000
 70
8
 42
0
  0
VERTEX
  8
PEC
 39
0
 10
3.367100
 20
3.949600
 30
0.000000
 70
8
 42
0
  0
VERTEX
  8
PEC
 39
0
 10
2.418360
 20
3.608392
 30
0.000000
 70
8
 42
0
  0
VERTEX
  8
PEC
 39
0
 10
1.484096
 20
3.229948
 30
0.000000
 70
8
 42
0
  0
VERTEX
  8
PEC
 39
0
 10
0.827400
 20
2.846667
 30
0.000000
 70
8
 42
0
  0
VERTEX
  8
PEC
 39
0
 10
0.669873
 20
2.680100
 30
0.000000
 70
8
 42
0
  0
VERTEX
  8
PEC
 39
0
 10
0.605463
 20
2.560022
 30
0.000000
 70
8
 42
0
  0
VERTEX
  8
PEC
 39
0
 10
0.583500
 20
2.464522
 30
0.000000
 70
8
 42
0
  0
VERTEX
  8
PEC
 39
0
 10
0.587819
 20
2.365553
 30
0.000000
 70
8
 42
0
  0
VERTEX
  8
PEC
 39
0
 10
0.621394
 20
2.259419
 30
0.000000
 70
8
 42
0
  0
VERTEX
  8
PEC
 39
0
 10
0.712030
 20
2.119968
 30
0.000000
 70
8
 42
0
  0
VERTEX
  8
PEC
 39
0
 10
0.965909
 20
1.893768
 30
0.000000
 70
8
 42
0
  0
VERTEX
  8
PEC
 39
0
 10
1.862592
 20
1.437428
 30
0.000000
 70
8
 42
0
  0
VERTEX
  8
PEC
 39
0
 10
2.808953
 20
1.089956
 30
0.000000
 70
8
 42
0
  0
VERTEX
  8
PEC
 39
0
 10
3.761506
 20
0.759539
 30
0.000000
 70
8
 42
0
  0
VERTEX
  8
PEC
 39
0
 10
4.696421
 20
0.383237
 30
0.000000
 70
8
 42
0
  0
VERTEX
  8
PEC
 39
0
 10
5.152116
 20
0.106057
 30
0.000000
 70
8
 42
0
  0
VERTEX
  8
PEC
 39
0
 10
5.271960
 20
-0.023544
 30
0.000000
 70
8
 42
0
  0
VERTEX
  8
PEC
 39
0
 10
5.320768
 20
-0.118843
 30
0.000000
 70
8
 42
0
  0
VERTEX
  8
PEC
 39
0
 10
5.338233
 20
-0.200405
 30
0.000000
 70
8
 42
0
  0
VERTEX
  8
PEC
 39
0
 10
5.333191
 20
-0.283279
 30
0.000000
 70
8
 42
0
  0
VERTEX
  8
PEC
 39
0
 10
5.300628
 20
-0.380659
 30
0.000000
 70
8
 42
0
  0
VERTEX
  8
PEC
 39
0
 10
5.209886
 20
-0.514599
 30
0.000000
 70
8
 42
0
  0
VERTEX
  8
PEC
 39
0
 10
4.909199
 20
-0.770731
 30
0.000000
 70
8
 42
0
  0
VERTEX
  8
PEC
 39
0
 10
4.019083
 20
-1.241533
 30
0.000000
 70
8
 42
0
  0
VERTEX
  8
PEC
 39
0
 10
3.087987
 20
-1.628132
 30
0.000000
 70
8
 42
0
  0
VERTEX
  8
PEC
 39
0
 10
2.149783
 20
-1.997346
 30
0.000000
 70
8
 42
0
  0
VERTEX
  8
PEC
 39
0
 10
1.221365
 20
-2.390210
 30
0.000000
 70
8
 42
0
  0
VERTEX
  8
PEC
 39
0
 10
0.346808
 20
-2.887606
 30
0.000000
 70
8
 42
0
  0
VERTEX
  8
PEC
 39
0
 10
0.142769
 20
-3.088629
 30
0.000000
 70
8
 42
0
  0
VERTEX
  8
PEC
 39
0
 10
0.072724
 20
-3.208966
 30
0.000000
 70
8
 42
0
  0
VERTEX
  8
PEC
 39
0
 10
0.049357
 20
-3.299415
 30
0.000000
 70
8
 42
0
  0
VERTEX
  8
PEC
 39
0
 10
0.050022
 20
-3.381040
 30
0.000000
 70
8
 42
0
  0
VERTEX
  8
PEC
 39
0
 10
0.072951
 20
-3.460905
 30
0.000000
 70
8
 42
0
  0
VERTEX
  8
PEC
 39
0
 10
0.133275
 20
-3.560672
 30
0.000000
 70
8
 42
0
  0
VERTEX
  8
PEC
 39
0
 10
0.283466
 20
-3.702615
 30
0.000000
 70
8
 42
0
  0
VERTEX
  8
PEC
 39
0
 10
1.043913
 20
-4.069073
 30
0.000000
 70
8
 42
0
  0
VERTEX
  8
PEC
 39
0
 10
0.947409
 20
-4.030469
 30
0.000000
 70
16
 42
0
  0
VERTEX
  8
PEC
 39
0
 10
0.755024
 20
-3.951370
 30
0.000000
 70
16
 42
0
  0
VERTEX
  8
PEC
 39
0
 10
0.564867
 20
-3.866865
 30
0.000000
 70
16
 42
0
  0
VERTEX
  8
PEC
 39
0
 10
0.380050
 20
-3.771497
 30
0.000000
 70
16
 42
0
  0
VERTEX
  8
PEC
 39
0
 10
0.247120
 20
-3.687305
 30
0.000000
 70
16
 42
0
  0
VERTEX
  8
PEC
 39
0
 10
0.103838
 20
-3.534707
 30
0.000000
 70
16
 42
0
  0
VERTEX
  8
PEC
 39
0
 10
0.037041
 20
-3.389339
 30
0.000000
 70
16
 42
0
  0
VERTEX
  8
PEC
 39
0
 10
0.053490
 20
-3.228958
 30
0.000000
 70
16
 42
0
  0
VERTEX
  8
PEC
 39
0
 10
0.159759
 20
-3.047043
 30
0.000000
 70
16
 42
0
  0
VERTEX
  8
PEC
 39
0
 10
0.354693
 20
-2.871467
 30
0.000000
 70
16
 42
0
  0
VERTEX
  8
PEC
 39
0
 10
0.702277
 20
-2.642709
 30
0.000000
 70
16
 42
0
  0
VERTEX
  8
PEC
 39
0
 10
1.260656
 20
-2.361907
 30
0.000000
 70
16
 42
0
  0
VERTEX
  8
PEC
 39
0
 10
2.220416
 20
-1.961592
 30
0.000000
 70
16
 42
0
  0
VERTEX
  8
PEC
 39
0
 10
2.998731
 20
-1.667458
 30
0.000000
 70
16
 42
0
  0
VERTEX
  8
PEC
 39
0
 10
3.768652
 20
-1.352441
 30
0.000000
 70
16
 42
0
  0
VERTEX
  8
PEC
 39
0
 10
4.247304
 20
-1.149126
 30
0.000000
 70
16
 42
0
  0
VERTEX
  8
PEC
 39
0
 10
4.799560
 20
-0.856133
 30
0.000000
 70
16
 42
0
  0
VERTEX
  8
PEC
 39
0
 10
5.093354
 20
-0.639365
 30
0.000000
 70
16
 42
0
  0
VERTEX
  8
PEC
 39
0
 10
5.237731
 20
-0.488897
 30
0.000000
 70
16
 42
0
  0
VERTEX
  8
PEC
 39
0
 10
5.322450
 20
-0.355885
 30
0.000000
 70
16
 42
0
  0
VERTEX
  8
PEC
 39
0
 10
5.352081
 20
-0.198206
 30
0.000000
 70
16
 42
0
  0
VERTEX
  8
PEC
 39
0
 10
5.298125
 20
-0.047195
 30
0.000000
 70
16
 42
0
  0
VERTEX
  8
PEC
 39
0
 10
5.196093
 20
0.072531
 30
0.000000
 70
16
 42
0
  0
VERTEX
  8
PEC
 39
0
 10
5.033694
 20
0.203174
 30
0.000000
 70
16
 42
0
  0
VERTEX
  8
PEC
 39
0
 10
4.807414
 20
0.332742
 30
0.000000
 70
16
 42
0
  0
VERTEX
  8
PEC
 39
0
 10
4.430389
 20
0.508484
 30
0.000000
 70
16
 42
0
  0
VERTEX
  8
PEC
 39
0
 10
3.945228
 20
0.696270
 30
0.000000
 70
16
 42
0
  0
VERTEX
  8
PEC
 39
0
 10
3.160312
 20
0.971620
 30
0.000000
 70
16
 42
0
  0
VERTEX
  8
PEC
 39
0
 10
2.371248
 20
1.235457
 30
0.000000
 70
16
 42
0
  0
VERTEX
  8
PEC
 39
0
 10
1.596934
 20
1.539967
 30
0.000000
 70
16
 42
0
  0
VERTEX
  8
PEC
 39
0
 10
1.107241
 20
1.783721
 30
0.000000
 70
16
 42
0
  0
VERTEX
  8
PEC
 39
0
 10
0.771057
 20
2.033508
 30
0.000000
 70
16
 42
0
  0
VERTEX
  8
PEC
 39
0
 10
0.645005
 20
2.202842
 30
0.000000
 70
16
 42
0
  0
VERTEX
  8
PEC
 39
0
 10
0.584268
 20
2.346508
 30
0.000000
 70
16
 42
0
  0
VERTEX
  8
PEC
 39
0
 10
0.573480
 20
2.427209
 30
0.000000
 70
16
 42
0
  0
VERTEX
  8
PEC
 39
0
 10
0.605044
 20
2.579959
 30
0.000000
 70
16
 42
0
  0
VERTEX
  8
PEC
 39
0
 10
0.696981
 20
2.742436
 30
0.000000
 70
16
 42
0
  0
VERTEX
  8
PEC
 39
0
 10
0.959309
 20
2.960123
 30
0.000000
 70
16
 42
0
  0
VERTEX
  8
PEC
 39
0
 10
1.370314
 20
3.185711
 30
0.000000
 70
16
 42
0
  0
VERTEX
  8
PEC
 39
0
 10
1.704815
 20
3.329729
 30
0.000000
 70
16
 42
0
  0
VERTEX
  8
PEC
 39
0
 10
2.669175
 20
3.718540
 30
0.000000
 70
16
 42
0
  0
VERTEX
  8
PEC
 39
0
 10
3.662433
 20
4.031695
 30
0.000000
 70
16
 42
0
  0
VERTEX
  8
PEC
 39
0
 10
4.624774
 20
4.426841
 30
0.000000
 70
16
 42
0
  0
VERTEX
  8
PEC
 39
0
 10
5.002141
 20
4.601766
 30
0.000000
 70
16
 42
0
  0
VERTEX
  8
PEC
 39
0
 10
5.236301
 20
4.718228
 30
0.000000
 70
16
 42
0
  0
VERTEX
  8
PEC
 39
0
 10
5.484086
 20
4.908549
 30
0.000000
 70
16
 42
0
  0
VERTEX
  8
PEC
 39
0
 10
5.603171
 20
5.029137
 30
0.000000
 70
16
 42
0
  0
VERTEX
  8
PEC
 39
0
 10
5.655608
 20
5.138891
 30
0.000000
 70
16
 42
0
  0
VERTEX
  8
PEC
 39
0
 10
5.660932
 20
5.242733
 30
0.000000
 70
16
 42
0
  0
VERTEX
  8
PEC
 39
0
 10
5.640036
 20
5.333764
 30
0.000000
 70
16
 42
0
  0
VERTEX
  8
PEC
 39
0
 10
5.581799
 20
5.406459
 30
0.000000
 70
16
 42
0
  0
VERTEX
  8
PEC
 39
0
 10
5.503560
 20
5.474957
 30
0.000000
 70
16
 42
0
  0
VERTEX
  8
PEC
 39
0
 10
5.375730
 20
5.564909
 30
0.000000
 70
16
 42
0
  0
VERTEX
  8
PEC
 39
0
 10
5.240712
 20
5.643242
 30
0.000000
 70
16
 42
0
  0
VERTEX
  8
PEC
 39
0
 10
5.149868
 20
5.693687
 30
0.000000
 70
16
 42
0
  0
SEQEND
  0
POLYLINE
  8
PEC
 66
1
 39
0
 10
0.000000
 20
0.000000
 30
0.000000
 70
0
  0
VERTEX
  8
PEC
 39
0
 10
-6.975695
 20
-4.069073
 30
0.000000
 70
0
 42
0
  0
VERTEX
  8
PEC
 39
0
 10
1.043913
 20
-4.069073
 30
0.000000
 70
0
 42
0
  0
SEQEND
  0
POLYLINE
  8
PEC
 66
1
 39
0
 10
0.000000
 20
0.000000
 30
0.000000
 70
0
  0
VERTEX
  8
PEC
 39
0
 10
-6.975695
 20
4.779494
 30
0.000000
 70
0
 42
0
  0
VERTEX
  8
PEC
 39
0
 10
-6.975695
 20
-4.069073
 30
0.000000
 70
0
 42
0
  0
SEQEND
  0
POLYLINE
  8
PEC
 66
1
 39
0
 10
0.000000
 20
0.000000
 30
0.000000
 70
0
  0
VERTEX
  8
PEC
 39
0
 10
-8.600309
 20
4.779494
 30
0.000000
 70
0
 42
0
  0
VERTEX
  8
PEC
 39
0
 10
-6.975695
 20
4.779494
 30
0.000000
 70
0
 42
0
  0
SEQEND
  0
POLYLINE
  8
ROSENBERGER_32K101-400L5_V2_TEFLON (PTFE) (LOSSY)
 66
1
 39
0
 10
0.000000
 20
0.000000
 30
0.000000
 70
1
  0
VERTEX
  8
ROSENBERGER_32K101-400L5_V2_TEFLON (PTFE) (LOSSY)
 39
0
 10
8.600309
 20
1.298543
 30
0.000000
 70
0
 42
0
  0
VERTEX
  8
ROSENBERGER_32K101-400L5_V2_TEFLON (PTFE) (LOSSY)
 39
0
 10
8.600309
 20
-1.677874
 30
0.000000
 70
0
 42
0
  0
VERTEX
  8
ROSENBERGER_32K101-400L5_V2_TEFLON (PTFE) (LOSSY)
 39
0
 10
16.300309
 20
-1.677874
 30
0.000000
 70
0
 42
0
  0
VERTEX
  8
ROSENBERGER_32K101-400L5_V2_TEFLON (PTFE) (LOSSY)
 39
0
 10
16.300309
 20
1.298543
 30
0.000000
 70
0
 42
0
  0
SEQEND
  8
ROSENBERGER_32K101-400L5_V2_TEFLON (PTFE) (LOSSY)
  0
POLYLINE
  8
ROSENBERGER_32K101-400L5_V2_GOLD
 66
1
 39
0
 10
0.000000
 20
0.000000
 30
0.000000
 70
1
  0
VERTEX
  8
ROSENBERGER_32K101-400L5_V2_GOLD
 39
0
 10
8.600309
 20
-1.677874
 30
0.000000
 70
0
 42
0
  0
VERTEX
  8
ROSENBERGER_32K101-400L5_V2_GOLD
 39
0
 10
8.600309
 20
-2.448072
 30
0.000000
 70
0
 42
0
  0
VERTEX
  8
ROSENBERGER_32K101-400L5_V2_GOLD
 39
0
 10
18.100309
 20
-2.448072
 30
0.000000
 70
0
 42
0
  0
VERTEX
  8
ROSENBERGER_32K101-400L5_V2_GOLD
 39
0
 10
18.100309
 20
-1.984561
 30
0.000000
 70
0
 42
0
  0
VERTEX
  8
ROSENBERGER_32K101-400L5_V2_GOLD
 39
0
 10
16.300309
 20
-1.984561
 30
0.000000
 70
0
 42
0
  0
VERTEX
  8
ROSENBERGER_32K101-400L5_V2_GOLD
 39
0
 10
16.300309
 20
-1.677874
 30
0.000000
 70
0
 42
0
  0
SEQEND
  8
ROSENBERGER_32K101-400L5_V2_GOLD
  0
POLYLINE
  8
ROSENBERGER_32K101-400L5_V2_GOLD
 66
1
 39
0
 10
0.000000
 20
0.000000
 30
0.000000
 70
1
  0
VERTEX
  8
ROSENBERGER_32K101-400L5_V2_GOLD
 39
0
 10
8.600309
 20
2.068741
 30
0.000000
 70
0
 42
0
  0
VERTEX
  8
ROSENBERGER_32K101-400L5_V2_GOLD
 39
0
 10
8.600309
 20
1.298543
 30
0.000000
 70
0
 42
0
  0
VERTEX
  8
ROSENBERGER_32K101-400L5_V2_GOLD
 39
0
 10
16.300309
 20
1.298543
 30
0.000000
 70
0
 42
0
  0
VERTEX
  8
ROSENBERGER_32K101-400L5_V2_GOLD
 39
0
 10
16.300309
 20
1.605230
 30
0.000000
 70
0
 42
0
  0
VERTEX
  8
ROSENBERGER_32K101-400L5_V2_GOLD
 39
0
 10
18.100309
 20
1.605230
 30
0.000000
 70
0
 42
0
  0
VERTEX
  8
ROSENBERGER_32K101-400L5_V2_GOLD
 39
0
 10
18.100309
 20
2.068741
 30
0.000000
 70
0
 42
0
  0
SEQEND
  8
ROSENBERGER_32K101-400L5_V2_GOLD
  0
POLYLINE
  8
ROSENBERGER_32K101-400L5_V2_GOLD
 66
1
 39
0
 10
0.000000
 20
0.000000
 30
0.000000
 70
1
  0
VERTEX
  8
ROSENBERGER_32K101-400L5_V2_GOLD
 39
0
 10
13.780309
 20
-2.448072
 30
0.000000
 70
0
 42
0
  0
VERTEX
  8
ROSENBERGER_32K101-400L5_V2_GOLD
 39
0
 10
13.780309
 20
-3.005952
 30
0.000000
 70
0
 42
0
  0
VERTEX
  8
ROSENBERGER_32K101-400L5_V2_GOLD
 39
0
 10
17.210309
 20
-3.005952
 30
0.000000
 70
0
 42
0
  0
VERTEX
  8
ROSENBERGER_32K101-400L5_V2_GOLD
 39
0
 10
17.210309
 20
-2.448072
 30
0.000000
 70
0
 42
0
  0
SEQEND
  8
ROSENBERGER_32K101-400L5_V2_GOLD
  0
POLYLINE
  8
ROSENBERGER_32K101-400L5_V2_GOLD
 66
1
 39
0
 10
0.000000
 20
0.000000
 30
0.000000
 70
1
  0
VERTEX
  8
ROSENBERGER_32K101-400L5_V2_GOLD
 39
0
 10
13.780309
 20
2.626621
 30
0.000000
 70
0
 42
0
  0
VERTEX
  8
ROSENBERGER_32K101-400L5_V2_GOLD
 39
0
 10
13.780309
 20
2.068741
 30
0.000000
 70
0
 42
0
  0
VERTEX
  8
ROSENBERGER_32K101-400L5_V2_GOLD
 39
0
 10
17.210309
 20
2.068741
 30
0.000000
 70
0
 42
0
  0
VERTEX
  8
ROSENBERGER_32K101-400L5_V2_GOLD
 39
0
 10
17.210309
 20
2.626621
 30
0.000000
 70
0
 42
0
  0
SEQEND
  8
ROSENBERGER_32K101-400L5_V2_GOLD
  0
POLYLINE
  8
ROSENBERGER_32K101-400L5_V2_GOLD
 66
1
 39
0
 10
0.000000
 20
0.000000
 30
0.000000
 70
0
  0
VERTEX
  8
ROSENBERGER_32K101-400L5_V2_GOLD
 39
0
 10
13.501737
 20
-2.448072
 30
0.000000
 70
0
 42
0
  0
VERTEX
  8
ROSENBERGER_32K101-400L5_V2_GOLD
 39
0
 10
13.780309
 20
-2.448072
 30
0.000000
 70
0
 42
0
  0
SEQEND
  0
POLYLINE
  8
ROSENBERGER_32K101-400L5_V2_GOLD
 66
1
 39
0
 10
0.000000
 20
0.000000
 30
0.000000
 70
4
 75
5
  0
VERTEX
  8
ROSENBERGER_32K101-400L5_V2_GOLD
 39
0
 10
13.780309
 20
-3.005952
 30
0.000000
 70
16
 42
0
  0
VERTEX
  8
ROSENBERGER_32K101-400L5_V2_GOLD
 39
0
 10
13.501737
 20
-2.448072
 30
0.000000
 70
8
 42
0
  0
VERTEX
  8
ROSENBERGER_32K101-400L5_V2_GOLD
 39
0
 10
13.512758
 20
-2.470796
 30
0.000000
 70
8
 42
0
  0
VERTEX
  8
ROSENBERGER_32K101-400L5_V2_GOLD
 39
0
 10
13.526536
 20
-2.499112
 30
0.000000
 70
8
 42
0
  0
VERTEX
  8
ROSENBERGER_32K101-400L5_V2_GOLD
 39
0
 10
13.540353
 20
-2.527410
 30
0.000000
 70
8
 42
0
  0
VERTEX
  8
ROSENBERGER_32K101-400L5_V2_GOLD
 39
0
 10
13.554208
 20
-2.555689
 30
0.000000
 70
8
 42
0
  0
VERTEX
  8
ROSENBERGER_32K101-400L5_V2_GOLD
 39
0
 10
13.568101
 20
-2.583949
 30
0.000000
 70
8
 42
0
  0
VERTEX
  8
ROSENBERGER_32K101-400L5_V2_GOLD
 39
0
 10
13.582029
 20
-2.612192
 30
0.000000
 70
8
 42
0
  0
VERTEX
  8
ROSENBERGER_32K101-400L5_V2_GOLD
 39
0
 10
13.595993
 20
-2.640417
 30
0.000000
 70
8
 42
0
  0
VERTEX
  8
ROSENBERGER_32K101-400L5_V2_GOLD
 39
0
 10
13.609990
 20
-2.668626
 30
0.000000
 70
8
 42
0
  0
VERTEX
  8
ROSENBERGER_32K101-400L5_V2_GOLD
 39
0
 10
13.624021
 20
-2.696818
 30
0.000000
 70
8
 42
0
  0
VERTEX
  8
ROSENBERGER_32K101-400L5_V2_GOLD
 39
0
 10
13.638084
 20
-2.724994
 30
0.000000
 70
8
 42
0
  0
VERTEX
  8
ROSENBERGER_32K101-400L5_V2_GOLD
 39
0
 10
13.652178
 20
-2.753155
 30
0.000000
 70
8
 42
0
  0
VERTEX
  8
ROSENBERGER_32K101-400L5_V2_GOLD
 39
0
 10
13.666303
 20
-2.781300
 30
0.000000
 70
8
 42
0
  0
VERTEX
  8
ROSENBERGER_32K101-400L5_V2_GOLD
 39
0
 10
13.680457
 20
-2.809430
 30
0.000000
 70
8
 42
0
  0
VERTEX
  8
ROSENBERGER_32K101-400L5_V2_GOLD
 39
0
 10
13.694641
 20
-2.837546
 30
0.000000
 70
8
 42
0
  0
VERTEX
  8
ROSENBERGER_32K101-400L5_V2_GOLD
 39
0
 10
13.708853
 20
-2.865647
 30
0.000000
 70
8
 42
0
  0
VERTEX
  8
ROSENBERGER_32K101-400L5_V2_GOLD
 39
0
 10
13.723092
 20
-2.893735
 30
0.000000
 70
8
 42
0
  0
VERTEX
  8
ROSENBERGER_32K101-400L5_V2_GOLD
 39
0
 10
13.737357
 20
-2.921809
 30
0.000000
 70
8
 42
0
  0
VERTEX
  8
ROSENBERGER_32K101-400L5_V2_GOLD
 39
0
 10
13.751649
 20
-2.949869
 30
0.000000
 70
8
 42
0
  0
VERTEX
  8
ROSENBERGER_32K101-400L5_V2_GOLD
 39
0
 10
13.765967
 20
-2.977917
 30
0.000000
 70
8
 42
0
  0
VERTEX
  8
ROSENBERGER_32K101-400L5_V2_GOLD
 39
0
 10
13.780309
 20
-3.005952
 30
0.000000
 70
8
 42
0
  0
VERTEX
  8
ROSENBERGER_32K101-400L5_V2_GOLD
 39
0
 10
13.625711
 20
-2.704074
 30
0.000000
 70
16
 42
0
  0
VERTEX
  8
ROSENBERGER_32K101-400L5_V2_GOLD
 39
0
 10
13.501737
 20
-2.448072
 30
0.000000
 70
16
 42
0
  0
SEQEND
  0
POLYLINE
  8
ROSENBERGER_32K101-400L5_V2_GOLD
 66
1
 39
0
 10
0.000000
 20
0.000000
 30
0.000000
 70
0
  0
VERTEX
  8
ROSENBERGER_32K101-400L5_V2_GOLD
 39
0
 10
13.780309
 20
-2.448072
 30
0.000000
 70
0
 42
0
  0
VERTEX
  8
ROSENBERGER_32K101-400L5_V2_GOLD
 39
0
 10
13.780309
 20
-3.005952
 30
0.000000
 70
0
 42
0
  0
SEQEND
  0
POLYLINE
  8
ROSENBERGER_32K101-400L5_V2_GOLD
 66
1
 39
0
 10
0.000000
 20
0.000000
 30
0.000000
 70
0
  0
VERTEX
  8
ROSENBERGER_32K101-400L5_V2_GOLD
 39
0
 10
13.780309
 20
2.068741
 30
0.000000
 70
0
 42
0
  0
VERTEX
  8
ROSENBERGER_32K101-400L5_V2_GOLD
 39
0
 10
13.501737
 20
2.068741
 30
0.000000
 70
0
 42
0
  0
SEQEND
  0
POLYLINE
  8
ROSENBERGER_32K101-400L5_V2_GOLD
 66
1
 39
0
 10
0.000000
 20
0.000000
 30
0.000000
 70
0
  0
VERTEX
  8
ROSENBERGER_32K101-400L5_V2_GOLD
 39
0
 10
13.780309
 20
2.626621
 30
0.000000
 70
0
 42
0
  0
VERTEX
  8
ROSENBERGER_32K101-400L5_V2_GOLD
 39
0
 10
13.780309
 20
2.068741
 30
0.000000
 70
0
 42
0
  0
SEQEND
  0
POLYLINE
  8
ROSENBERGER_32K101-400L5_V2_GOLD
 66
1
 39
0
 10
0.000000
 20
0.000000
 30
0.000000
 70
4
 75
5
  0
VERTEX
  8
ROSENBERGER_32K101-400L5_V2_GOLD
 39
0
 10
13.501737
 20
2.068741
 30
0.000000
 70
16
 42
0
  0
VERTEX
  8
ROSENBERGER_32K101-400L5_V2_GOLD
 39
0
 10
13.780309
 20
2.626621
 30
0.000000
 70
8
 42
0
  0
VERTEX
  8
ROSENBERGER_32K101-400L5_V2_GOLD
 39
0
 10
13.768805
 20
2.604138
 30
0.000000
 70
8
 42
0
  0
VERTEX
  8
ROSENBERGER_32K101-400L5_V2_GOLD
 39
0
 10
13.754482
 20
2.576093
 30
0.000000
 70
8
 42
0
  0
VERTEX
  8
ROSENBERGER_32K101-400L5_V2_GOLD
 39
0
 10
13.740185
 20
2.548035
 30
0.000000
 70
8
 42
0
  0
VERTEX
  8
ROSENBERGER_32K101-400L5_V2_GOLD
 39
0
 10
13.725914
 20
2.519963
 30
0.000000
 70
8
 42
0
  0
VERTEX
  8
ROSENBERGER_32K101-400L5_V2_GOLD
 39
0
 10
13.711670
 20
2.491879
 30
0.000000
 70
8
 42
0
  0
VERTEX
  8
ROSENBERGER_32K101-400L5_V2_GOLD
 39
0
 10
13.697453
 20
2.463780
 30
0.000000
 70
8
 42
0
  0
VERTEX
  8
ROSENBERGER_32K101-400L5_V2_GOLD
 39
0
 10
13.683264
 20
2.435667
 30
0.000000
 70
8
 42
0
  0
VERTEX
  8
ROSENBERGER_32K101-400L5_V2_GOLD
 39
0
 10
13.669103
 20
2.407540
 30
0.000000
 70
8
 42
0
  0
VERTEX
  8
ROSENBERGER_32K101-400L5_V2_GOLD
 39
0
 10
13.654973
 20
2.379398
 30
0.000000
 70
8
 42
0
  0
VERTEX
  8
ROSENBERGER_32K101-400L5_V2_GOLD
 39
0
 10
13.640872
 20
2.351240
 30
0.000000
 70
8
 42
0
  0
VERTEX
  8
ROSENBERGER_32K101-400L5_V2_GOLD
 39
0
 10
13.626803
 20
2.323067
 30
0.000000
 70
8
 42
0
  0
VERTEX
  8
ROSENBERGER_32K101-400L5_V2_GOLD
 39
0
 10
13.612766
 20
2.294878
 30
0.000000
 70
8
 42
0
  0
VERTEX
  8
ROSENBERGER_32K101-400L5_V2_GOLD
 39
0
 10
13.598762
 20
2.266673
 30
0.000000
 70
8
 42
0
  0
VERTEX
  8
ROSENBERGER_32K101-400L5_V2_GOLD
 39
0
 10
13.584791
 20
2.238451
 30
0.000000
 70
8
 42
0
  0
VERTEX
  8
ROSENBERGER_32K101-400L5_V2_GOLD
 39
0
 10
13.570856
 20
2.210211
 30
0.000000
 70
8
 42
0
  0
VERTEX
  8
ROSENBERGER_32K101-400L5_V2_GOLD
 39
0
 10
13.556956
 20
2.181954
 30
0.000000
 70
8
 42
0
  0
VERTEX
  8
ROSENBERGER_32K101-400L5_V2_GOLD
 39
0
 10
13.543093
 20
2.153679
 30
0.000000
 70
8
 42
0
  0
VERTEX
  8
ROSENBERGER_32K101-400L5_V2_GOLD
 39
0
 10
13.529269
 20
2.125386
 30
0.000000
 70
8
 42
0
  0
VERTEX
  8
ROSENBERGER_32K101-400L5_V2_GOLD
 39
0
 10
13.515483
 20
2.097073
 30
0.000000
 70
8
 42
0
  0
VERTEX
  8
ROSENBERGER_32K101-400L5_V2_GOLD
 39
0
 10
13.501737
 20
2.068741
 30
0.000000
 70
8
 42
0
  0
VERTEX
  8
ROSENBERGER_32K101-400L5_V2_GOLD
 39
0
 10
13.625711
 20
2.324743
 30
0.000000
 70
16
 42
0
  0
VERTEX
  8
ROSENBERGER_32K101-400L5_V2_GOLD
 39
0
 10
13.780309
 20
2.626621
 30
0.000000
 70
16
 42
0
  0
SEQEND
  0
POLYLINE
  8
ROSENBERGER_32K101-400L5_V2_GOLD
 66
1
 39
0
 10
0.000000
 20
0.000000
 30
0.000000
 70
0
  0
VERTEX
  8
ROSENBERGER_32K101-400L5_V2_GOLD
 39
0
 10
17.210309
 20
-2.448072
 30
0.000000
 70
0
 42
0
  0
VERTEX
  8
ROSENBERGER_32K101-400L5_V2_GOLD
 39
0
 10
17.488880
 20
-2.448072
 30
0.000000
 70
0
 42
0
  0
SEQEND
  0
POLYLINE
  8
ROSENBERGER_32K101-400L5_V2_GOLD
 66
1
 39
0
 10
0.000000
 20
0.000000
 30
0.000000
 70
0
  0
VERTEX
  8
ROSENBERGER_32K101-400L5_V2_GOLD
 39
0
 10
17.210309
 20
-3.005952
 30
0.000000
 70
0
 42
0
  0
VERTEX
  8
ROSENBERGER_32K101-400L5_V2_GOLD
 39
0
 10
17.210309
 20
-2.448072
 30
0.000000
 70
0
 42
0
  0
SEQEND
  0
POLYLINE
  8
ROSENBERGER_32K101-400L5_V2_GOLD
 66
1
 39
0
 10
0.000000
 20
0.000000
 30
0.000000
 70
4
 75
5
  0
VERTEX
  8
ROSENBERGER_32K101-400L5_V2_GOLD
 39
0
 10
17.488880
 20
-2.448072
 30
0.000000
 70
16
 42
0
  0
VERTEX
  8
ROSENBERGER_32K101-400L5_V2_GOLD
 39
0
 10
17.210309
 20
-3.005952
 30
0.000000
 70
8
 42
0
  0
VERTEX
  8
ROSENBERGER_32K101-400L5_V2_GOLD
 39
0
 10
17.221812
 20
-2.983470
 30
0.000000
 70
8
 42
0
  0
VERTEX
  8
ROSENBERGER_32K101-400L5_V2_GOLD
 39
0
 10
17.236135
 20
-2.955424
 30
0.000000
 70
8
 42
0
  0
VERTEX
  8
ROSENBERGER_32K101-400L5_V2_GOLD
 39
0
 10
17.250432
 20
-2.927366
 30
0.000000
 70
8
 42
0
  0
VERTEX
  8
ROSENBERGER_32K101-400L5_V2_GOLD
 39
0
 10
17.264703
 20
-2.899295
 30
0.000000
 70
8
 42
0
  0
VERTEX
  8
ROSENBERGER_32K101-400L5_V2_GOLD
 39
0
 10
17.278947
 20
-2.871210
 30
0.000000
 70
8
 42
0
  0
VERTEX
  8
ROSENBERGER_32K101-400L5_V2_GOLD
 39
0
 10
17.293164
 20
-2.843112
 30
0.000000
 70
8
 42
0
  0
VERTEX
  8
ROSENBERGER_32K101-400L5_V2_GOLD
 39
0
 10
17.307353
 20
-2.814999
 30
0.000000
 70
8
 42
0
  0
VERTEX
  8
ROSENBERGER_32K101-400L5_V2_GOLD
 39
0
 10
17.321514
 20
-2.786872
 30
0.000000
 70
8
 42
0
  0
VERTEX
  8
ROSENBERGER_32K101-400L5_V2_GOLD
 39
0
 10
17.335644
 20
-2.758729
 30
0.000000
 70
8
 42
0
  0
VERTEX
  8
ROSENBERGER_32K101-400L5_V2_GOLD
 39
0
 10
17.349745
 20
-2.730572
 30
0.000000
 70
8
 42
0
  0
VERTEX
  8
ROSENBERGER_32K101-400L5_V2_GOLD
 39
0
 10
17.363814
 20
-2.702399
 30
0.000000
 70
8
 42
0
  0
VERTEX
  8
ROSENBERGER_32K101-400L5_V2_GOLD
 39
0
 10
17.377851
 20
-2.674210
 30
0.000000
 70
8
 42
0
  0
VERTEX
  8
ROSENBERGER_32K101-400L5_V2_GOLD
 39
0
 10
17.391855
 20
-2.646005
 30
0.000000
 70
8
 42
0
  0
VERTEX
  8
ROSENBERGER_32K101-400L5_V2_GOLD
 39
0
 10
17.405826
 20
-2.617783
 30
0.000000
 70
8
 42
0
  0
VERTEX
  8
ROSENBERGER_32K101-400L5_V2_GOLD
 39
0
 10
17.419761
 20
-2.589543
 30
0.000000
 70
8
 42
0
  0
VERTEX
  8
ROSENBERGER_32K101-400L5_V2_GOLD
 39
0
 10
17.433661
 20
-2.561286
 30
0.000000
 70
8
 42
0
  0
VERTEX
  8
ROSENBERGER_32K101-400L5_V2_GOLD
 39
0
 10
17.447524
 20
-2.533011
 30
0.000000
 70
8
 42
0
  0
VERTEX
  8
ROSENBERGER_32K101-400L5_V2_GOLD
 39
0
 10
17.461348
 20
-2.504717
 30
0.000000
 70
8
 42
0
  0
VERTEX
  8
ROSENBERGER_32K101-400L5_V2_GOLD
 39
0
 10
17.475134
 20
-2.476405
 30
0.000000
 70
8
 42
0
  0
VERTEX
  8
ROSENBERGER_32K101-400L5_V2_GOLD
 39
0
 10
17.488880
 20
-2.448072
 30
0.000000
 70
8
 42
0
  0
VERTEX
  8
ROSENBERGER_32K101-400L5_V2_GOLD
 39
0
 10
17.364906
 20
-2.704074
 30
0.000000
 70
16
 42
0
  0
VERTEX
  8
ROSENBERGER_32K101-400L5_V2_GOLD
 39
0
 10
17.210309
 20
-3.005952
 30
0.000000
 70
16
 42
0
  0
SEQEND
  0
POLYLINE
  8
ROSENBERGER_32K101-400L5_V2_GOLD
 66
1
 39
0
 10
0.000000
 20
0.000000
 30
0.000000
 70
0
  0
VERTEX
  8
ROSENBERGER_32K101-400L5_V2_GOLD
 39
0
 10
17.488880
 20
2.068741
 30
0.000000
 70
0
 42
0
  0
VERTEX
  8
ROSENBERGER_32K101-400L5_V2_GOLD
 39
0
 10
17.210309
 20
2.068741
 30
0.000000
 70
0
 42
0
  0
SEQEND
  0
POLYLINE
  8
ROSENBERGER_32K101-400L5_V2_GOLD
 66
1
 39
0
 10
0.000000
 20
0.000000
 30
0.000000
 70
4
 75
5
  0
VERTEX
  8
ROSENBERGER_32K101-400L5_V2_GOLD
 39
0
 10
17.210309
 20
2.626621
 30
0.000000
 70
16
 42
0
  0
VERTEX
  8
ROSENBERGER_32K101-400L5_V2_GOLD
 39
0
 10
17.488880
 20
2.068741
 30
0.000000
 70
8
 42
0
  0
VERTEX
  8
ROSENBERGER_32K101-400L5_V2_GOLD
 39
0
 10
17.477859
 20
2.091464
 30
0.000000
 70
8
 42
0
  0
VERTEX
  8
ROSENBERGER_32K101-400L5_V2_GOLD
 39
0
 10
17.464081
 20
2.119781
 30
0.000000
 70
8
 42
0
  0
VERTEX
  8
ROSENBERGER_32K101-400L5_V2_GOLD
 39
0
 10
17.450264
 20
2.148078
 30
0.000000
 70
8
 42
0
  0
VERTEX
  8
ROSENBERGER_32K101-400L5_V2_GOLD
 39
0
 10
17.436409
 20
2.176357
 30
0.000000
 70
8
 42
0
  0
VERTEX
  8
ROSENBERGER_32K101-400L5_V2_GOLD
 39
0
 10
17.422516
 20
2.204617
 30
0.000000
 70
8
 42
0
  0
VERTEX
  8
ROSENBERGER_32K101-400L5_V2_GOLD
 39
0
 10
17.408588
 20
2.232860
 30
0.000000
 70
8
 42
0
  0
VERTEX
  8
ROSENBERGER_32K101-400L5_V2_GOLD
 39
0
 10
17.394624
 20
2.261086
 30
0.000000
 70
8
 42
0
  0
VERTEX
  8
ROSENBERGER_32K101-400L5_V2_GOLD
 39
0
 10
17.380627
 20
2.289294
 30
0.000000
 70
8
 42
0
  0
VERTEX
  8
ROSENBERGER_32K101-400L5_V2_GOLD
 39
0
 10
17.366596
 20
2.317487
 30
0.000000
 70
8
 42
0
  0
VERTEX
  8
ROSENBERGER_32K101-400L5_V2_GOLD
 39
0
 10
17.352533
 20
2.345663
 30
0.000000
 70
8
 42
0
  0
VERTEX
  8
ROSENBERGER_32K101-400L5_V2_GOLD
 39
0
 10
17.338439
 20
2.373823
 30
0.000000
 70
8
 42
0
  0
VERTEX
  8
ROSENBERGER_32K101-400L5_V2_GOLD
 39
0
 10
17.324314
 20
2.401968
 30
0.000000
 70
8
 42
0
  0
VERTEX
  8
ROSENBERGER_32K101-400L5_V2_GOLD
 39
0
 10
17.310160
 20
2.430099
 30
0.000000
 70
8
 42
0
  0
VERTEX
  8
ROSENBERGER_32K101-400L5_V2_GOLD
 39
0
 10
17.295976
 20
2.458214
 30
0.000000
 70
8
 42
0
  0
VERTEX
  8
ROSENBERGER_32K101-400L5_V2_GOLD
 39
0
 10
17.281765
 20
2.486316
 30
0.000000
 70
8
 42
0
  0
VERTEX
  8
ROSENBERGER_32K101-400L5_V2_GOLD
 39
0
 10
17.267525
 20
2.514403
 30
0.000000
 70
8
 42
0
  0
VERTEX
  8
ROSENBERGER_32K101-400L5_V2_GOLD
 39
0
 10
17.253260
 20
2.542477
 30
0.000000
 70
8
 42
0
  0
VERTEX
  8
ROSENBERGER_32K101-400L5_V2_GOLD
 39
0
 10
17.238968
 20
2.570538
 30
0.000000
 70
8
 42
0
  0
VERTEX
  8
ROSENBERGER_32K101-400L5_V2_GOLD
 39
0
 10
17.224651
 20
2.598585
 30
0.000000
 70
8
 42
0
  0
VERTEX
  8
ROSENBERGER_32K101-400L5_V2_GOLD
 39
0
 10
17.210309
 20
2.626621
 30
0.000000
 70
8
 42
0
  0
VERTEX
  8
ROSENBERGER_32K101-400L5_V2_GOLD
 39
0
 10
17.364906
 20
2.324743
 30
0.000000
 70
16
 42
0
  0
VERTEX
  8
ROSENBERGER_32K101-400L5_V2_GOLD
 39
0
 10
17.488880
 20
2.068741
 30
0.000000
 70
16
 42
0
  0
SEQEND
  0
POLYLINE
  8
ROSENBERGER_32K101-400L5_V2_GOLD
 66
1
 39
0
 10
0.000000
 20
0.000000
 30
0.000000
 70
0
  0
VERTEX
  8
ROSENBERGER_32K101-400L5_V2_GOLD
 39
0
 10
17.210309
 20
2.068741
 30
0.000000
 70
0
 42
0
  0
VERTEX
  8
ROSENBERGER_32K101-400L5_V2_GOLD
 39
0
 10
17.210309
 20
2.626621
 30
0.000000
 70
0
 42
0
  0
SEQEND
  0
POLYLINE
  8
ROSENBERGER_32K101-400L5_V2_GOLD
 66
1
 39
0
 10
0.000000
 20
0.000000
 30
0.000000
 70
1
  0
VERTEX
  8
ROSENBERGER_32K101-400L5_V2_GOLD
 39
0
 10
8.600309
 20
2.068741
 30
0.000000
 70
0
 42
0
  0
VERTEX
  8
ROSENBERGER_32K101-400L5_V2_GOLD
 39
0
 10
10.250309
 20
2.068741
 30
0.000000
 70
0
 42
0
  0
VERTEX
  8
ROSENBERGER_32K101-400L5_V2_GOLD
 39
0
 10
10.250309
 20
2.985334
 30
0.000000
 70
0
 42
0
  0
VERTEX
  8
ROSENBERGER_32K101-400L5_V2_GOLD
 39
0
 10
8.600309
 20
2.985334
 30
0.000000
 70
0
 42
0
  0
SEQEND
  8
ROSENBERGER_32K101-400L5_V2_GOLD
  0
POLYLINE
  8
ROSENBERGER_32K101-400L5_V2_GOLD
 66
1
 39
0
 10
0.000000
 20
0.000000
 30
0.000000
 70
1
  0
VERTEX
  8
ROSENBERGER_32K101-400L5_V2_GOLD
 39
0
 10
10.250309
 20
-2.448072
 30
0.000000
 70
0
 42
0
  0
VERTEX
  8
ROSENBERGER_32K101-400L5_V2_GOLD
 39
0
 10
8.600309
 20
-2.448072
 30
0.000000
 70
0
 42
0
  0
VERTEX
  8
ROSENBERGER_32K101-400L5_V2_GOLD
 39
0
 10
8.600309
 20
-3.364666
 30
0.000000
 70
0
 42
0
  0
VERTEX
  8
ROSENBERGER_32K101-400L5_V2_GOLD
 39
0
 10
10.250309
 20
-3.364666
 30
0.000000
 70
0
 42
0
  0
SEQEND
  8
ROSENBERGER_32K101-400L5_V2_GOLD
  0
ENDSEC
  0
EOF
