  0
SECTION
  2
HEADER
  9
$ACADVER
  1
AC1009
  0
ENDSEC
  0
SECTION
  2
ENTITIES
  0
POLYLINE
  8
ROGERS RO4003C (LOSSY)
 66
1
 39
0
 10
0.000000
 20
0.000000
 30
0.000000
 70
1
  0
VERTEX
  8
ROGERS RO4003C (LOSSY)
 39
0
 10
8.600309
 20
-5.693687
 30
0.000000
 70
0
 42
0
  0
VERTEX
  8
ROGERS RO4003C (LOSSY)
 39
0
 10
8.600309
 20
5.693687
 30
0.000000
 70
0
 42
0
  0
VERTEX
  8
ROGERS RO4003C (LOSSY)
 39
0
 10
-8.600309
 20
5.693687
 30
0.000000
 70
0
 42
0
  0
VERTEX
  8
ROGERS RO4003C (LOSSY)
 39
0
 10
-8.600309
 20
-5.693687
 30
0.000000
 70
0
 42
0
  0
SEQEND
  8
ROGERS RO4003C (LOSSY)
  0
POLYLINE
  8
PEC
 66
1
 39
0
 10
0.000000
 20
0.000000
 30
0.000000
 70
0
  0
VERTEX
  8
PEC
 39
0
 10
1.370228
 20
1.089666
 30
0.000000
 70
0
 42
0
  0
VERTEX
  8
PEC
 39
0
 10
8.600309
 20
1.089666
 30
0.000000
 70
0
 42
0
  0
SEQEND
  0
POLYLINE
  8
PEC
 66
1
 39
0
 10
0.000000
 20
0.000000
 30
0.000000
 70
4
 75
5
  0
VERTEX
  8
PEC
 39
0
 10
1.280576
 20
-0.710334
 30
0.000000
 70
16
 42
0
  0
VERTEX
  8
PEC
 39
0
 10
1.370228
 20
1.089666
 30
0.000000
 70
8
 42
0
  0
VERTEX
  8
PEC
 39
0
 10
1.116911
 20
1.681798
 30
0.000000
 70
8
 42
0
  0
VERTEX
  8
PEC
 39
0
 10
0.514601
 20
2.517647
 30
0.000000
 70
8
 42
0
  0
VERTEX
  8
PEC
 39
0
 10
-0.289693
 20
3.188152
 30
0.000000
 70
8
 42
0
  0
VERTEX
  8
PEC
 39
0
 10
-1.224604
 20
3.660815
 30
0.000000
 70
8
 42
0
  0
VERTEX
  8
PEC
 39
0
 10
-2.236392
 20
3.933762
 30
0.000000
 70
8
 42
0
  0
VERTEX
  8
PEC
 39
0
 10
-3.281760
 20
4.008576
 30
0.000000
 70
8
 42
0
  0
VERTEX
  8
PEC
 39
0
 10
-4.317285
 20
3.856454
 30
0.000000
 70
8
 42
0
  0
VERTEX
  8
PEC
 39
0
 10
-5.052116
 20
3.537752
 30
0.000000
 70
8
 42
0
  0
VERTEX
  8
PEC
 39
0
 10
-5.578345
 20
3.118055
 30
0.000000
 70
8
 42
0
  0
VERTEX
  8
PEC
 39
0
 10
-5.925105
 20
2.648420
 30
0.000000
 70
8
 42
0
  0
VERTEX
  8
PEC
 39
0
 10
-6.112110
 20
2.169231
 30
0.000000
 70
8
 42
0
  0
VERTEX
  8
PEC
 39
0
 10
-6.167274
 20
1.663533
 30
0.000000
 70
8
 42
0
  0
VERTEX
  8
PEC
 39
0
 10
-6.082791
 20
1.121428
 30
0.000000
 70
8
 42
0
  0
VERTEX
  8
PEC
 39
0
 10
-5.895489
 20
0.402548
 30
0.000000
 70
8
 42
0
  0
VERTEX
  8
PEC
 39
0
 10
-5.831325
 20
0.217192
 30
0.000000
 70
8
 42
0
  0
VERTEX
  8
PEC
 39
0
 10
-5.686406
 20
0.006051
 30
0.000000
 70
8
 42
0
  0
VERTEX
  8
PEC
 39
0
 10
-4.944322
 20
-0.617269
 30
0.000000
 70
8
 42
0
  0
VERTEX
  8
PEC
 39
0
 10
-4.059888
 20
-1.181469
 30
0.000000
 70
8
 42
0
  0
VERTEX
  8
PEC
 39
0
 10
-3.701720
 20
-1.555231
 30
0.000000
 70
8
 42
0
  0
VERTEX
  8
PEC
 39
0
 10
-3.085968
 20
-2.404041
 30
0.000000
 70
8
 42
0
  0
VERTEX
  8
PEC
 39
0
 10
-2.672783
 20
-2.755842
 30
0.000000
 70
8
 42
0
  0
VERTEX
  8
PEC
 39
0
 10
-2.297226
 20
-2.931861
 30
0.000000
 70
8
 42
0
  0
VERTEX
  8
PEC
 39
0
 10
-1.878704
 20
-3.004640
 30
0.000000
 70
8
 42
0
  0
VERTEX
  8
PEC
 39
0
 10
-1.387539
 20
-2.959526
 30
0.000000
 70
8
 42
0
  0
VERTEX
  8
PEC
 39
0
 10
-0.825450
 20
-2.751380
 30
0.000000
 70
8
 42
0
  0
VERTEX
  8
PEC
 39
0
 10
-0.137427
 20
-2.257296
 30
0.000000
 70
8
 42
0
  0
VERTEX
  8
PEC
 39
0
 10
0.579385
 20
-1.491324
 30
0.000000
 70
8
 42
0
  0
VERTEX
  8
PEC
 39
0
 10
1.280576
 20
-0.710334
 30
0.000000
 70
8
 42
0
  0
VERTEX
  8
PEC
 39
0
 10
1.160707
 20
-0.840358
 30
0.000000
 70
16
 42
0
  0
VERTEX
  8
PEC
 39
0
 10
0.878130
 20
-1.146971
 30
0.000000
 70
16
 42
0
  0
VERTEX
  8
PEC
 39
0
 10
0.448206
 20
-1.643855
 30
0.000000
 70
16
 42
0
  0
VERTEX
  8
PEC
 39
0
 10
-0.031871
 20
-2.181623
 30
0.000000
 70
16
 42
0
  0
VERTEX
  8
PEC
 39
0
 10
-0.586647
 20
-2.646494
 30
0.000000
 70
16
 42
0
  0
VERTEX
  8
PEC
 39
0
 10
-1.241868
 20
-2.963691
 30
0.000000
 70
16
 42
0
  0
VERTEX
  8
PEC
 39
0
 10
-1.849042
 20
-3.035831
 30
0.000000
 70
16
 42
0
  0
VERTEX
  8
PEC
 39
0
 10
-2.322800
 20
-2.938423
 30
0.000000
 70
16
 42
0
  0
VERTEX
  8
PEC
 39
0
 10
-2.541782
 20
-2.836204
 30
0.000000
 70
16
 42
0
  0
VERTEX
  8
PEC
 39
0
 10
-2.849213
 20
-2.648493
 30
0.000000
 70
16
 42
0
  0
VERTEX
  8
PEC
 39
0
 10
-3.027068
 20
-2.482039
 30
0.000000
 70
16
 42
0
  0
VERTEX
  8
PEC
 39
0
 10
-3.255368
 20
-2.203430
 30
0.000000
 70
16
 42
0
  0
VERTEX
  8
PEC
 39
0
 10
-3.397115
 20
-2.009327
 30
0.000000
 70
16
 42
0
  0
VERTEX
  8
PEC
 39
0
 10
-3.527366
 20
-1.807555
 30
0.000000
 70
16
 42
0
  0
VERTEX
  8
PEC
 39
0
 10
-3.694614
 20
-1.558299
 30
0.000000
 70
16
 42
0
  0
VERTEX
  8
PEC
 39
0
 10
-3.803241
 20
-1.413009
 30
0.000000
 70
16
 42
0
  0
VERTEX
  8
PEC
 39
0
 10
-4.065391
 20
-1.165982
 30
0.000000
 70
16
 42
0
  0
VERTEX
  8
PEC
 39
0
 10
-4.215151
 20
-1.063834
 30
0.000000
 70
16
 42
0
  0
VERTEX
  8
PEC
 39
0
 10
-4.472785
 20
-0.909838
 30
0.000000
 70
16
 42
0
  0
VERTEX
  8
PEC
 39
0
 10
-4.575630
 20
-0.847864
 30
0.000000
 70
16
 42
0
  0
VERTEX
  8
PEC
 39
0
 10
-4.883724
 20
-0.661254
 30
0.000000
 70
16
 42
0
  0
VERTEX
  8
PEC
 39
0
 10
-5.185474
 20
-0.462798
 30
0.000000
 70
16
 42
0
  0
VERTEX
  8
PEC
 39
0
 10
-5.456356
 20
-0.224634
 30
0.000000
 70
16
 42
0
  0
VERTEX
  8
PEC
 39
0
 10
-5.629258
 20
-0.057990
 30
0.000000
 70
16
 42
0
  0
VERTEX
  8
PEC
 39
0
 10
-5.757674
 20
0.070904
 30
0.000000
 70
16
 42
0
  0
VERTEX
  8
PEC
 39
0
 10
-5.854895
 20
0.259014
 30
0.000000
 70
16
 42
0
  0
VERTEX
  8
PEC
 39
0
 10
-5.891298
 20
0.373680
 30
0.000000
 70
16
 42
0
  0
VERTEX
  8
PEC
 39
0
 10
-5.901299
 20
0.432957
 30
0.000000
 70
16
 42
0
  0
VERTEX
  8
PEC
 39
0
 10
-5.923619
 20
0.581365
 30
0.000000
 70
16
 42
0
  0
VERTEX
  8
PEC
 39
0
 10
-5.950738
 20
0.698615
 30
0.000000
 70
16
 42
0
  0
VERTEX
  8
PEC
 39
0
 10
-6.017736
 20
0.929214
 30
0.000000
 70
16
 42
0
  0
VERTEX
  8
PEC
 39
0
 10
-6.061596
 20
1.041350
 30
0.000000
 70
16
 42
0
  0
VERTEX
  8
PEC
 39
0
 10
-6.139780
 20
1.331157
 30
0.000000
 70
16
 42
0
  0
VERTEX
  8
PEC
 39
0
 10
-6.192679
 20
1.690614
 30
0.000000
 70
16
 42
0
  0
VERTEX
  8
PEC
 39
0
 10
-6.129923
 20
2.171434
 30
0.000000
 70
16
 42
0
  0
VERTEX
  8
PEC
 39
0
 10
-5.979966
 20
2.566010
 30
0.000000
 70
16
 42
0
  0
VERTEX
  8
PEC
 39
0
 10
-5.730706
 20
2.978706
 30
0.000000
 70
16
 42
0
  0
VERTEX
  8
PEC
 39
0
 10
-5.301876
 20
3.408353
 30
0.000000
 70
16
 42
0
  0
VERTEX
  8
PEC
 39
0
 10
-4.773935
 20
3.704317
 30
0.000000
 70
16
 42
0
  0
VERTEX
  8
PEC
 39
0
 10
-4.319660
 20
3.862110
 30
0.000000
 70
16
 42
0
  0
VERTEX
  8
PEC
 39
0
 10
-3.851739
 20
3.973097
 30
0.000000
 70
16
 42
0
  0
VERTEX
  8
PEC
 39
0
 10
-3.491611
 20
4.004837
 30
0.000000
 70
16
 42
0
  0
VERTEX
  8
PEC
 39
0
 10
-2.771327
 20
4.017975
 30
0.000000
 70
16
 42
0
  0
VERTEX
  8
PEC
 39
0
 10
-1.808768
 20
3.909792
 30
0.000000
 70
16
 42
0
  0
VERTEX
  8
PEC
 39
0
 10
-0.455392
 20
3.376132
 30
0.000000
 70
16
 42
0
  0
VERTEX
  8
PEC
 39
0
 10
0.682005
 20
2.460287
 30
0.000000
 70
16
 42
0
  0
VERTEX
  8
PEC
 39
0
 10
1.198830
 20
1.597140
 30
0.000000
 70
16
 42
0
  0
VERTEX
  8
PEC
 39
0
 10
1.361654
 20
1.116016
 30
0.000000
 70
16
 42
0
  0
VERTEX
  8
PEC
 39
0
 10
1.370228
 20
1.089666
 30
0.000000
 70
16
 42
0
  0
SEQEND
  0
POLYLINE
  8
PEC
 66
1
 39
0
 10
0.000000
 20
0.000000
 30
0.000000
 70
0
  0
VERTEX
  8
PEC
 39
0
 10
8.600309
 20
-0.710334
 30
0.000000
 70
0
 42
0
  0
VERTEX
  8
PEC
 39
0
 10
1.280576
 20
-0.710334
 30
0.000000
 70
0
 42
0
  0
SEQEND
  0
POLYLINE
  8
PEC
 66
1
 39
0
 10
0.000000
 20
0.000000
 30
0.000000
 70
0
  0
VERTEX
  8
PEC
 39
0
 10
8.600309
 20
1.089666
 30
0.000000
 70
0
 42
0
  0
VERTEX
  8
PEC
 39
0
 10
8.600309
 20
-0.710334
 30
0.000000
 70
0
 42
0
  0
SEQEND
  0
POLYLINE
  8
ROSENBERGER_32K101-400L5_V2_TEFLON (PTFE) (LOSSY)
 66
1
 39
0
 10
0.000000
 20
0.000000
 30
0.000000
 70
1
  0
VERTEX
  8
ROSENBERGER_32K101-400L5_V2_TEFLON (PTFE) (LOSSY)
 39
0
 10
8.600309
 20
2.173982
 30
0.000000
 70
0
 42
0
  0
VERTEX
  8
ROSENBERGER_32K101-400L5_V2_TEFLON (PTFE) (LOSSY)
 39
0
 10
8.600309
 20
-1.794651
 30
0.000000
 70
0
 42
0
  0
VERTEX
  8
ROSENBERGER_32K101-400L5_V2_TEFLON (PTFE) (LOSSY)
 39
0
 10
16.300309
 20
-1.794651
 30
0.000000
 70
0
 42
0
  0
VERTEX
  8
ROSENBERGER_32K101-400L5_V2_TEFLON (PTFE) (LOSSY)
 39
0
 10
16.300309
 20
2.173982
 30
0.000000
 70
0
 42
0
  0
SEQEND
  8
ROSENBERGER_32K101-400L5_V2_TEFLON (PTFE) (LOSSY)
  0
POLYLINE
  8
ROSENBERGER_32K101-400L5_V2_GOLD
 66
1
 39
0
 10
0.000000
 20
0.000000
 30
0.000000
 70
1
  0
VERTEX
  8
ROSENBERGER_32K101-400L5_V2_GOLD
 39
0
 10
8.600309
 20
-1.794651
 30
0.000000
 70
0
 42
0
  0
VERTEX
  8
ROSENBERGER_32K101-400L5_V2_GOLD
 39
0
 10
8.600309
 20
-2.422450
 30
0.000000
 70
0
 42
0
  0
VERTEX
  8
ROSENBERGER_32K101-400L5_V2_GOLD
 39
0
 10
18.100309
 20
-2.422450
 30
0.000000
 70
0
 42
0
  0
VERTEX
  8
ROSENBERGER_32K101-400L5_V2_GOLD
 39
0
 10
18.100309
 20
-2.033934
 30
0.000000
 70
0
 42
0
  0
VERTEX
  8
ROSENBERGER_32K101-400L5_V2_GOLD
 39
0
 10
16.300309
 20
-2.033934
 30
0.000000
 70
0
 42
0
  0
VERTEX
  8
ROSENBERGER_32K101-400L5_V2_GOLD
 39
0
 10
16.300309
 20
-1.794651
 30
0.000000
 70
0
 42
0
  0
SEQEND
  8
ROSENBERGER_32K101-400L5_V2_GOLD
  0
POLYLINE
  8
ROSENBERGER_32K101-400L5_V2_GOLD
 66
1
 39
0
 10
0.000000
 20
0.000000
 30
0.000000
 70
1
  0
VERTEX
  8
ROSENBERGER_32K101-400L5_V2_GOLD
 39
0
 10
8.600309
 20
2.801781
 30
0.000000
 70
0
 42
0
  0
VERTEX
  8
ROSENBERGER_32K101-400L5_V2_GOLD
 39
0
 10
8.600309
 20
2.173982
 30
0.000000
 70
0
 42
0
  0
VERTEX
  8
ROSENBERGER_32K101-400L5_V2_GOLD
 39
0
 10
16.300309
 20
2.173982
 30
0.000000
 70
0
 42
0
  0
VERTEX
  8
ROSENBERGER_32K101-400L5_V2_GOLD
 39
0
 10
16.300309
 20
2.413266
 30
0.000000
 70
0
 42
0
  0
VERTEX
  8
ROSENBERGER_32K101-400L5_V2_GOLD
 39
0
 10
18.100309
 20
2.413266
 30
0.000000
 70
0
 42
0
  0
VERTEX
  8
ROSENBERGER_32K101-400L5_V2_GOLD
 39
0
 10
18.100309
 20
2.801781
 30
0.000000
 70
0
 42
0
  0
SEQEND
  8
ROSENBERGER_32K101-400L5_V2_GOLD
  0
POLYLINE
  8
ROSENBERGER_32K101-400L5_V2_GOLD
 66
1
 39
0
 10
0.000000
 20
0.000000
 30
0.000000
 70
1
  0
VERTEX
  8
ROSENBERGER_32K101-400L5_V2_GOLD
 39
0
 10
13.780309
 20
-2.422450
 30
0.000000
 70
0
 42
0
  0
VERTEX
  8
ROSENBERGER_32K101-400L5_V2_GOLD
 39
0
 10
13.780309
 20
-2.917458
 30
0.000000
 70
0
 42
0
  0
VERTEX
  8
ROSENBERGER_32K101-400L5_V2_GOLD
 39
0
 10
17.210309
 20
-2.917458
 30
0.000000
 70
0
 42
0
  0
VERTEX
  8
ROSENBERGER_32K101-400L5_V2_GOLD
 39
0
 10
17.210309
 20
-2.422450
 30
0.000000
 70
0
 42
0
  0
SEQEND
  8
ROSENBERGER_32K101-400L5_V2_GOLD
  0
POLYLINE
  8
ROSENBERGER_32K101-400L5_V2_GOLD
 66
1
 39
0
 10
0.000000
 20
0.000000
 30
0.000000
 70
1
  0
VERTEX
  8
ROSENBERGER_32K101-400L5_V2_GOLD
 39
0
 10
13.780309
 20
3.296789
 30
0.000000
 70
0
 42
0
  0
VERTEX
  8
ROSENBERGER_32K101-400L5_V2_GOLD
 39
0
 10
13.780309
 20
2.801781
 30
0.000000
 70
0
 42
0
  0
VERTEX
  8
ROSENBERGER_32K101-400L5_V2_GOLD
 39
0
 10
17.210309
 20
2.801781
 30
0.000000
 70
0
 42
0
  0
VERTEX
  8
ROSENBERGER_32K101-400L5_V2_GOLD
 39
0
 10
17.210309
 20
3.296789
 30
0.000000
 70
0
 42
0
  0
SEQEND
  8
ROSENBERGER_32K101-400L5_V2_GOLD
  0
POLYLINE
  8
ROSENBERGER_32K101-400L5_V2_GOLD
 66
1
 39
0
 10
0.000000
 20
0.000000
 30
0.000000
 70
0
  0
VERTEX
  8
ROSENBERGER_32K101-400L5_V2_GOLD
 39
0
 10
13.780309
 20
2.801781
 30
0.000000
 70
0
 42
0
  0
VERTEX
  8
ROSENBERGER_32K101-400L5_V2_GOLD
 39
0
 10
13.501737
 20
2.801781
 30
0.000000
 70
0
 42
0
  0
SEQEND
  0
POLYLINE
  8
ROSENBERGER_32K101-400L5_V2_GOLD
 66
1
 39
0
 10
0.000000
 20
0.000000
 30
0.000000
 70
0
  0
VERTEX
  8
ROSENBERGER_32K101-400L5_V2_GOLD
 39
0
 10
13.780309
 20
3.296789
 30
0.000000
 70
0
 42
0
  0
VERTEX
  8
ROSENBERGER_32K101-400L5_V2_GOLD
 39
0
 10
13.780309
 20
2.801781
 30
0.000000
 70
0
 42
0
  0
SEQEND
  0
POLYLINE
  8
ROSENBERGER_32K101-400L5_V2_GOLD
 66
1
 39
0
 10
0.000000
 20
0.000000
 30
0.000000
 70
4
 75
5
  0
VERTEX
  8
ROSENBERGER_32K101-400L5_V2_GOLD
 39
0
 10
13.501737
 20
2.801781
 30
0.000000
 70
16
 42
0
  0
VERTEX
  8
ROSENBERGER_32K101-400L5_V2_GOLD
 39
0
 10
13.780309
 20
3.296789
 30
0.000000
 70
8
 42
0
  0
VERTEX
  8
ROSENBERGER_32K101-400L5_V2_GOLD
 39
0
 10
13.768993
 20
3.276760
 30
0.000000
 70
8
 42
0
  0
VERTEX
  8
ROSENBERGER_32K101-400L5_V2_GOLD
 39
0
 10
13.754888
 20
3.251783
 30
0.000000
 70
8
 42
0
  0
VERTEX
  8
ROSENBERGER_32K101-400L5_V2_GOLD
 39
0
 10
13.740786
 20
3.226805
 30
0.000000
 70
8
 42
0
  0
VERTEX
  8
ROSENBERGER_32K101-400L5_V2_GOLD
 39
0
 10
13.726688
 20
3.201824
 30
0.000000
 70
8
 42
0
  0
VERTEX
  8
ROSENBERGER_32K101-400L5_V2_GOLD
 39
0
 10
13.712594
 20
3.176840
 30
0.000000
 70
8
 42
0
  0
VERTEX
  8
ROSENBERGER_32K101-400L5_V2_GOLD
 39
0
 10
13.698504
 20
3.151855
 30
0.000000
 70
8
 42
0
  0
VERTEX
  8
ROSENBERGER_32K101-400L5_V2_GOLD
 39
0
 10
13.684418
 20
3.126867
 30
0.000000
 70
8
 42
0
  0
VERTEX
  8
ROSENBERGER_32K101-400L5_V2_GOLD
 39
0
 10
13.670337
 20
3.101877
 30
0.000000
 70
8
 42
0
  0
VERTEX
  8
ROSENBERGER_32K101-400L5_V2_GOLD
 39
0
 10
13.656260
 20
3.076884
 30
0.000000
 70
8
 42
0
  0
VERTEX
  8
ROSENBERGER_32K101-400L5_V2_GOLD
 39
0
 10
13.642187
 20
3.051889
 30
0.000000
 70
8
 42
0
  0
VERTEX
  8
ROSENBERGER_32K101-400L5_V2_GOLD
 39
0
 10
13.628119
 20
3.026891
 30
0.000000
 70
8
 42
0
  0
VERTEX
  8
ROSENBERGER_32K101-400L5_V2_GOLD
 39
0
 10
13.614056
 20
3.001890
 30
0.000000
 70
8
 42
0
  0
VERTEX
  8
ROSENBERGER_32K101-400L5_V2_GOLD
 39
0
 10
13.599998
 20
2.976887
 30
0.000000
 70
8
 42
0
  0
VERTEX
  8
ROSENBERGER_32K101-400L5_V2_GOLD
 39
0
 10
13.585945
 20
2.951881
 30
0.000000
 70
8
 42
0
  0
VERTEX
  8
ROSENBERGER_32K101-400L5_V2_GOLD
 39
0
 10
13.571896
 20
2.926872
 30
0.000000
 70
8
 42
0
  0
VERTEX
  8
ROSENBERGER_32K101-400L5_V2_GOLD
 39
0
 10
13.557853
 20
2.901860
 30
0.000000
 70
8
 42
0
  0
VERTEX
  8
ROSENBERGER_32K101-400L5_V2_GOLD
 39
0
 10
13.543816
 20
2.876845
 30
0.000000
 70
8
 42
0
  0
VERTEX
  8
ROSENBERGER_32K101-400L5_V2_GOLD
 39
0
 10
13.529784
 20
2.851827
 30
0.000000
 70
8
 42
0
  0
VERTEX
  8
ROSENBERGER_32K101-400L5_V2_GOLD
 39
0
 10
13.515758
 20
2.826806
 30
0.000000
 70
8
 42
0
  0
VERTEX
  8
ROSENBERGER_32K101-400L5_V2_GOLD
 39
0
 10
13.501737
 20
2.801781
 30
0.000000
 70
8
 42
0
  0
VERTEX
  8
ROSENBERGER_32K101-400L5_V2_GOLD
 39
0
 10
13.628967
 20
3.028932
 30
0.000000
 70
16
 42
0
  0
VERTEX
  8
ROSENBERGER_32K101-400L5_V2_GOLD
 39
0
 10
13.780309
 20
3.296789
 30
0.000000
 70
16
 42
0
  0
SEQEND
  0
POLYLINE
  8
ROSENBERGER_32K101-400L5_V2_GOLD
 66
1
 39
0
 10
0.000000
 20
0.000000
 30
0.000000
 70
0
  0
VERTEX
  8
ROSENBERGER_32K101-400L5_V2_GOLD
 39
0
 10
13.501737
 20
-2.422450
 30
0.000000
 70
0
 42
0
  0
VERTEX
  8
ROSENBERGER_32K101-400L5_V2_GOLD
 39
0
 10
13.780309
 20
-2.422450
 30
0.000000
 70
0
 42
0
  0
SEQEND
  0
POLYLINE
  8
ROSENBERGER_32K101-400L5_V2_GOLD
 66
1
 39
0
 10
0.000000
 20
0.000000
 30
0.000000
 70
4
 75
5
  0
VERTEX
  8
ROSENBERGER_32K101-400L5_V2_GOLD
 39
0
 10
13.780309
 20
-2.917458
 30
0.000000
 70
16
 42
0
  0
VERTEX
  8
ROSENBERGER_32K101-400L5_V2_GOLD
 39
0
 10
13.501737
 20
-2.422450
 30
0.000000
 70
8
 42
0
  0
VERTEX
  8
ROSENBERGER_32K101-400L5_V2_GOLD
 39
0
 10
13.512981
 20
-2.442519
 30
0.000000
 70
8
 42
0
  0
VERTEX
  8
ROSENBERGER_32K101-400L5_V2_GOLD
 39
0
 10
13.527006
 20
-2.467541
 30
0.000000
 70
8
 42
0
  0
VERTEX
  8
ROSENBERGER_32K101-400L5_V2_GOLD
 39
0
 10
13.541037
 20
-2.492560
 30
0.000000
 70
8
 42
0
  0
VERTEX
  8
ROSENBERGER_32K101-400L5_V2_GOLD
 39
0
 10
13.555073
 20
-2.517575
 30
0.000000
 70
8
 42
0
  0
VERTEX
  8
ROSENBERGER_32K101-400L5_V2_GOLD
 39
0
 10
13.569115
 20
-2.542588
 30
0.000000
 70
8
 42
0
  0
VERTEX
  8
ROSENBERGER_32K101-400L5_V2_GOLD
 39
0
 10
13.583162
 20
-2.567597
 30
0.000000
 70
8
 42
0
  0
VERTEX
  8
ROSENBERGER_32K101-400L5_V2_GOLD
 39
0
 10
13.597215
 20
-2.592604
 30
0.000000
 70
8
 42
0
  0
VERTEX
  8
ROSENBERGER_32K101-400L5_V2_GOLD
 39
0
 10
13.611272
 20
-2.617608
 30
0.000000
 70
8
 42
0
  0
VERTEX
  8
ROSENBERGER_32K101-400L5_V2_GOLD
 39
0
 10
13.625334
 20
-2.642609
 30
0.000000
 70
8
 42
0
  0
VERTEX
  8
ROSENBERGER_32K101-400L5_V2_GOLD
 39
0
 10
13.639401
 20
-2.667607
 30
0.000000
 70
8
 42
0
  0
VERTEX
  8
ROSENBERGER_32K101-400L5_V2_GOLD
 39
0
 10
13.653473
 20
-2.692603
 30
0.000000
 70
8
 42
0
  0
VERTEX
  8
ROSENBERGER_32K101-400L5_V2_GOLD
 39
0
 10
13.667549
 20
-2.717596
 30
0.000000
 70
8
 42
0
  0
VERTEX
  8
ROSENBERGER_32K101-400L5_V2_GOLD
 39
0
 10
13.681630
 20
-2.742587
 30
0.000000
 70
8
 42
0
  0
VERTEX
  8
ROSENBERGER_32K101-400L5_V2_GOLD
 39
0
 10
13.695715
 20
-2.767575
 30
0.000000
 70
8
 42
0
  0
VERTEX
  8
ROSENBERGER_32K101-400L5_V2_GOLD
 39
0
 10
13.709804
 20
-2.792561
 30
0.000000
 70
8
 42
0
  0
VERTEX
  8
ROSENBERGER_32K101-400L5_V2_GOLD
 39
0
 10
13.723897
 20
-2.817545
 30
0.000000
 70
8
 42
0
  0
VERTEX
  8
ROSENBERGER_32K101-400L5_V2_GOLD
 39
0
 10
13.737994
 20
-2.842526
 30
0.000000
 70
8
 42
0
  0
VERTEX
  8
ROSENBERGER_32K101-400L5_V2_GOLD
 39
0
 10
13.752095
 20
-2.867506
 30
0.000000
 70
8
 42
0
  0
VERTEX
  8
ROSENBERGER_32K101-400L5_V2_GOLD
 39
0
 10
13.766200
 20
-2.892483
 30
0.000000
 70
8
 42
0
  0
VERTEX
  8
ROSENBERGER_32K101-400L5_V2_GOLD
 39
0
 10
13.780309
 20
-2.917458
 30
0.000000
 70
8
 42
0
  0
VERTEX
  8
ROSENBERGER_32K101-400L5_V2_GOLD
 39
0
 10
13.628967
 20
-2.649601
 30
0.000000
 70
16
 42
0
  0
VERTEX
  8
ROSENBERGER_32K101-400L5_V2_GOLD
 39
0
 10
13.501737
 20
-2.422450
 30
0.000000
 70
16
 42
0
  0
SEQEND
  0
POLYLINE
  8
ROSENBERGER_32K101-400L5_V2_GOLD
 66
1
 39
0
 10
0.000000
 20
0.000000
 30
0.000000
 70
0
  0
VERTEX
  8
ROSENBERGER_32K101-400L5_V2_GOLD
 39
0
 10
13.780309
 20
-2.422450
 30
0.000000
 70
0
 42
0
  0
VERTEX
  8
ROSENBERGER_32K101-400L5_V2_GOLD
 39
0
 10
13.780309
 20
-2.917458
 30
0.000000
 70
0
 42
0
  0
SEQEND
  0
POLYLINE
  8
ROSENBERGER_32K101-400L5_V2_GOLD
 66
1
 39
0
 10
0.000000
 20
0.000000
 30
0.000000
 70
0
  0
VERTEX
  8
ROSENBERGER_32K101-400L5_V2_GOLD
 39
0
 10
17.488880
 20
2.801781
 30
0.000000
 70
0
 42
0
  0
VERTEX
  8
ROSENBERGER_32K101-400L5_V2_GOLD
 39
0
 10
17.210309
 20
2.801781
 30
0.000000
 70
0
 42
0
  0
SEQEND
  0
POLYLINE
  8
ROSENBERGER_32K101-400L5_V2_GOLD
 66
1
 39
0
 10
0.000000
 20
0.000000
 30
0.000000
 70
4
 75
5
  0
VERTEX
  8
ROSENBERGER_32K101-400L5_V2_GOLD
 39
0
 10
17.210309
 20
3.296789
 30
0.000000
 70
16
 42
0
  0
VERTEX
  8
ROSENBERGER_32K101-400L5_V2_GOLD
 39
0
 10
17.488880
 20
2.801781
 30
0.000000
 70
8
 42
0
  0
VERTEX
  8
ROSENBERGER_32K101-400L5_V2_GOLD
 39
0
 10
17.477636
 20
2.821851
 30
0.000000
 70
8
 42
0
  0
VERTEX
  8
ROSENBERGER_32K101-400L5_V2_GOLD
 39
0
 10
17.463611
 20
2.846873
 30
0.000000
 70
8
 42
0
  0
VERTEX
  8
ROSENBERGER_32K101-400L5_V2_GOLD
 39
0
 10
17.449580
 20
2.871891
 30
0.000000
 70
8
 42
0
  0
VERTEX
  8
ROSENBERGER_32K101-400L5_V2_GOLD
 39
0
 10
17.435544
 20
2.896907
 30
0.000000
 70
8
 42
0
  0
VERTEX
  8
ROSENBERGER_32K101-400L5_V2_GOLD
 39
0
 10
17.421502
 20
2.921919
 30
0.000000
 70
8
 42
0
  0
VERTEX
  8
ROSENBERGER_32K101-400L5_V2_GOLD
 39
0
 10
17.407455
 20
2.946929
 30
0.000000
 70
8
 42
0
  0
VERTEX
  8
ROSENBERGER_32K101-400L5_V2_GOLD
 39
0
 10
17.393402
 20
2.971936
 30
0.000000
 70
8
 42
0
  0
VERTEX
  8
ROSENBERGER_32K101-400L5_V2_GOLD
 39
0
 10
17.379345
 20
2.996939
 30
0.000000
 70
8
 42
0
  0
VERTEX
  8
ROSENBERGER_32K101-400L5_V2_GOLD
 39
0
 10
17.365283
 20
3.021940
 30
0.000000
 70
8
 42
0
  0
VERTEX
  8
ROSENBERGER_32K101-400L5_V2_GOLD
 39
0
 10
17.351216
 20
3.046939
 30
0.000000
 70
8
 42
0
  0
VERTEX
  8
ROSENBERGER_32K101-400L5_V2_GOLD
 39
0
 10
17.337144
 20
3.071935
 30
0.000000
 70
8
 42
0
  0
VERTEX
  8
ROSENBERGER_32K101-400L5_V2_GOLD
 39
0
 10
17.323068
 20
3.096928
 30
0.000000
 70
8
 42
0
  0
VERTEX
  8
ROSENBERGER_32K101-400L5_V2_GOLD
 39
0
 10
17.308987
 20
3.121919
 30
0.000000
 70
8
 42
0
  0
VERTEX
  8
ROSENBERGER_32K101-400L5_V2_GOLD
 39
0
 10
17.294903
 20
3.146907
 30
0.000000
 70
8
 42
0
  0
VERTEX
  8
ROSENBERGER_32K101-400L5_V2_GOLD
 39
0
 10
17.280813
 20
3.171893
 30
0.000000
 70
8
 42
0
  0
VERTEX
  8
ROSENBERGER_32K101-400L5_V2_GOLD
 39
0
 10
17.266720
 20
3.196877
 30
0.000000
 70
8
 42
0
  0
VERTEX
  8
ROSENBERGER_32K101-400L5_V2_GOLD
 39
0
 10
17.252623
 20
3.221858
 30
0.000000
 70
8
 42
0
  0
VERTEX
  8
ROSENBERGER_32K101-400L5_V2_GOLD
 39
0
 10
17.238522
 20
3.246837
 30
0.000000
 70
8
 42
0
  0
VERTEX
  8
ROSENBERGER_32K101-400L5_V2_GOLD
 39
0
 10
17.224417
 20
3.271814
 30
0.000000
 70
8
 42
0
  0
VERTEX
  8
ROSENBERGER_32K101-400L5_V2_GOLD
 39
0
 10
17.210309
 20
3.296789
 30
0.000000
 70
8
 42
0
  0
VERTEX
  8
ROSENBERGER_32K101-400L5_V2_GOLD
 39
0
 10
17.361650
 20
3.028932
 30
0.000000
 70
16
 42
0
  0
VERTEX
  8
ROSENBERGER_32K101-400L5_V2_GOLD
 39
0
 10
17.488880
 20
2.801781
 30
0.000000
 70
16
 42
0
  0
SEQEND
  0
POLYLINE
  8
ROSENBERGER_32K101-400L5_V2_GOLD
 66
1
 39
0
 10
0.000000
 20
0.000000
 30
0.000000
 70
0
  0
VERTEX
  8
ROSENBERGER_32K101-400L5_V2_GOLD
 39
0
 10
17.210309
 20
2.801781
 30
0.000000
 70
0
 42
0
  0
VERTEX
  8
ROSENBERGER_32K101-400L5_V2_GOLD
 39
0
 10
17.210309
 20
3.296789
 30
0.000000
 70
0
 42
0
  0
SEQEND
  0
POLYLINE
  8
ROSENBERGER_32K101-400L5_V2_GOLD
 66
1
 39
0
 10
0.000000
 20
0.000000
 30
0.000000
 70
0
  0
VERTEX
  8
ROSENBERGER_32K101-400L5_V2_GOLD
 39
0
 10
17.210309
 20
-2.422450
 30
0.000000
 70
0
 42
0
  0
VERTEX
  8
ROSENBERGER_32K101-400L5_V2_GOLD
 39
0
 10
17.488880
 20
-2.422450
 30
0.000000
 70
0
 42
0
  0
SEQEND
  0
POLYLINE
  8
ROSENBERGER_32K101-400L5_V2_GOLD
 66
1
 39
0
 10
0.000000
 20
0.000000
 30
0.000000
 70
0
  0
VERTEX
  8
ROSENBERGER_32K101-400L5_V2_GOLD
 39
0
 10
17.210309
 20
-2.917458
 30
0.000000
 70
0
 42
0
  0
VERTEX
  8
ROSENBERGER_32K101-400L5_V2_GOLD
 39
0
 10
17.210309
 20
-2.422450
 30
0.000000
 70
0
 42
0
  0
SEQEND
  0
POLYLINE
  8
ROSENBERGER_32K101-400L5_V2_GOLD
 66
1
 39
0
 10
0.000000
 20
0.000000
 30
0.000000
 70
4
 75
5
  0
VERTEX
  8
ROSENBERGER_32K101-400L5_V2_GOLD
 39
0
 10
17.488880
 20
-2.422450
 30
0.000000
 70
16
 42
0
  0
VERTEX
  8
ROSENBERGER_32K101-400L5_V2_GOLD
 39
0
 10
17.210309
 20
-2.917458
 30
0.000000
 70
8
 42
0
  0
VERTEX
  8
ROSENBERGER_32K101-400L5_V2_GOLD
 39
0
 10
17.221624
 20
-2.897428
 30
0.000000
 70
8
 42
0
  0
VERTEX
  8
ROSENBERGER_32K101-400L5_V2_GOLD
 39
0
 10
17.235729
 20
-2.872452
 30
0.000000
 70
8
 42
0
  0
VERTEX
  8
ROSENBERGER_32K101-400L5_V2_GOLD
 39
0
 10
17.249831
 20
-2.847473
 30
0.000000
 70
8
 42
0
  0
VERTEX
  8
ROSENBERGER_32K101-400L5_V2_GOLD
 39
0
 10
17.263929
 20
-2.822492
 30
0.000000
 70
8
 42
0
  0
VERTEX
  8
ROSENBERGER_32K101-400L5_V2_GOLD
 39
0
 10
17.278023
 20
-2.797509
 30
0.000000
 70
8
 42
0
  0
VERTEX
  8
ROSENBERGER_32K101-400L5_V2_GOLD
 39
0
 10
17.292113
 20
-2.772523
 30
0.000000
 70
8
 42
0
  0
VERTEX
  8
ROSENBERGER_32K101-400L5_V2_GOLD
 39
0
 10
17.306199
 20
-2.747535
 30
0.000000
 70
8
 42
0
  0
VERTEX
  8
ROSENBERGER_32K101-400L5_V2_GOLD
 39
0
 10
17.320280
 20
-2.722545
 30
0.000000
 70
8
 42
0
  0
VERTEX
  8
ROSENBERGER_32K101-400L5_V2_GOLD
 39
0
 10
17.334357
 20
-2.697552
 30
0.000000
 70
8
 42
0
  0
VERTEX
  8
ROSENBERGER_32K101-400L5_V2_GOLD
 39
0
 10
17.348430
 20
-2.672557
 30
0.000000
 70
8
 42
0
  0
VERTEX
  8
ROSENBERGER_32K101-400L5_V2_GOLD
 39
0
 10
17.362498
 20
-2.647559
 30
0.000000
 70
8
 42
0
  0
VERTEX
  8
ROSENBERGER_32K101-400L5_V2_GOLD
 39
0
 10
17.376561
 20
-2.622559
 30
0.000000
 70
8
 42
0
  0
VERTEX
  8
ROSENBERGER_32K101-400L5_V2_GOLD
 39
0
 10
17.390619
 20
-2.597555
 30
0.000000
 70
8
 42
0
  0
VERTEX
  8
ROSENBERGER_32K101-400L5_V2_GOLD
 39
0
 10
17.404672
 20
-2.572549
 30
0.000000
 70
8
 42
0
  0
VERTEX
  8
ROSENBERGER_32K101-400L5_V2_GOLD
 39
0
 10
17.418721
 20
-2.547540
 30
0.000000
 70
8
 42
0
  0
VERTEX
  8
ROSENBERGER_32K101-400L5_V2_GOLD
 39
0
 10
17.432764
 20
-2.522528
 30
0.000000
 70
8
 42
0
  0
VERTEX
  8
ROSENBERGER_32K101-400L5_V2_GOLD
 39
0
 10
17.446801
 20
-2.497513
 30
0.000000
 70
8
 42
0
  0
VERTEX
  8
ROSENBERGER_32K101-400L5_V2_GOLD
 39
0
 10
17.460833
 20
-2.472495
 30
0.000000
 70
8
 42
0
  0
VERTEX
  8
ROSENBERGER_32K101-400L5_V2_GOLD
 39
0
 10
17.474860
 20
-2.447474
 30
0.000000
 70
8
 42
0
  0
VERTEX
  8
ROSENBERGER_32K101-400L5_V2_GOLD
 39
0
 10
17.488880
 20
-2.422450
 30
0.000000
 70
8
 42
0
  0
VERTEX
  8
ROSENBERGER_32K101-400L5_V2_GOLD
 39
0
 10
17.361650
 20
-2.649601
 30
0.000000
 70
16
 42
0
  0
VERTEX
  8
ROSENBERGER_32K101-400L5_V2_GOLD
 39
0
 10
17.210309
 20
-2.917458
 30
0.000000
 70
16
 42
0
  0
SEQEND
  0
POLYLINE
  8
ROSENBERGER_32K101-400L5_V2_GOLD
 66
1
 39
0
 10
0.000000
 20
0.000000
 30
0.000000
 70
1
  0
VERTEX
  8
ROSENBERGER_32K101-400L5_V2_GOLD
 39
0
 10
10.250309
 20
-2.422450
 30
0.000000
 70
0
 42
0
  0
VERTEX
  8
ROSENBERGER_32K101-400L5_V2_GOLD
 39
0
 10
8.600309
 20
-2.422450
 30
0.000000
 70
0
 42
0
  0
VERTEX
  8
ROSENBERGER_32K101-400L5_V2_GOLD
 39
0
 10
8.600309
 20
-2.985334
 30
0.000000
 70
0
 42
0
  0
VERTEX
  8
ROSENBERGER_32K101-400L5_V2_GOLD
 39
0
 10
10.250309
 20
-2.985334
 30
0.000000
 70
0
 42
0
  0
SEQEND
  8
ROSENBERGER_32K101-400L5_V2_GOLD
  0
POLYLINE
  8
ROSENBERGER_32K101-400L5_V2_GOLD
 66
1
 39
0
 10
0.000000
 20
0.000000
 30
0.000000
 70
1
  0
VERTEX
  8
ROSENBERGER_32K101-400L5_V2_GOLD
 39
0
 10
8.600309
 20
2.801781
 30
0.000000
 70
0
 42
0
  0
VERTEX
  8
ROSENBERGER_32K101-400L5_V2_GOLD
 39
0
 10
10.250309
 20
2.801781
 30
0.000000
 70
0
 42
0
  0
VERTEX
  8
ROSENBERGER_32K101-400L5_V2_GOLD
 39
0
 10
10.250309
 20
3.364666
 30
0.000000
 70
0
 42
0
  0
VERTEX
  8
ROSENBERGER_32K101-400L5_V2_GOLD
 39
0
 10
8.600309
 20
3.364666
 30
0.000000
 70
0
 42
0
  0
SEQEND
  8
ROSENBERGER_32K101-400L5_V2_GOLD
  0
ENDSEC
  0
EOF
